# xmcd
#
# Track frame offsets: 
#        150
#        674
#        17801
#        37384
#        55360
#        74550
#        92336
#        108012
#        126116
#        140708
#        158448
#        177399
#        195248
#        217146
#        235788
#        253595
#        271673
#        285224
#        301254
#        317503
#
# Disc length: 4439 seconds
#
# Revision: 0
# Processed by: cddbd v1.5.2PL0 Copyright (c) Steve Scherf et al.
# Submitted via: ExactAudioCopy v0.99pb4
#
DISCID=0e115514
DTITLE=Various Artist - prevue promo 1074A-1
DYEAR=2001
DGENRE=pop
TTITLE0=blank - data
TTITLE1=Carly Hennessy - Beautiful You
TTITLE2=Edwin McCain - Write Me A Song(Radio Edit # 1)
TTITLE3=Edwin McCain - Write Me A Song(Radio Edit # 2)
TTITLE4=Mandalay - Not Seventeen
TTITLE5=Serah - I'm Not In Love
TTITLE6=Calling, The - Wherever You Will Go
TTITLE7=Keke Wyatt feat. Avant - Nothing In This World
TTITLE8=Lina - It's Alright(Radio Edit Clean)
TTITLE9=Destiny's Child - Emotion
TTITLE10=Eden's Crush - Love The Way(Al B. Rich Bass Mix)
TTITLE11=O Town - We Fit Together
TTITLE12=NSYNC - Gone
TTITLE13=Deep Blue Something - Hell In Itself
TTITLE14=Anders Osborne with Charlene Howard - Ho-Di-Ko-Di-Ya-La-Ma-La
TTITLE15=Boz Scaggs - Payday
TTITLE16=Lit - Lipstick And Bruises
TTITLE17=Rollins Band - Your Number Is One
TTITLE18=Linkin Park - In The End
TTITLE19=Dope - Now Or Never
EXTD=
EXTT0=
EXTT1=
EXTT2=
EXTT3=
EXTT4=
EXTT5=
EXTT6=
EXTT7=
EXTT8=
EXTT9=
EXTT10=
EXTT11=
EXTT12=
EXTT13=
EXTT14=
EXTT15=
EXTT16=
EXTT17=
EXTT18=
EXTT19=
PLAYORDER=
